<?xml version="1.0" standalone="no"?>
<!DOCTYPE svg PUBLIC "-//W3C//DTD SVG 20010904//EN"
 "http://www.w3.org/TR/2001/REC-SVG-20010904/DTD/svg10.dtd">
<svg version="1.0" xmlns="http://www.w3.org/2000/svg"
 width="512.000000pt" height="512.000000pt" viewBox="0 0 512.000000 512.000000"
 preserveAspectRatio="xMidYMid meet">
<metadata>
Created by potrace 1.14, written by Peter Selinger 2001-2017
</metadata>
<g transform="translate(0.000000,512.000000) scale(0.100000,-0.100000)"
fill="#000000" stroke="none">
<path d="M1710 5020 c-24 -18 -25 -23 -28 -159 l-4 -140 -531 -3 -532 -3 -37
-23 c-66 -41 -98 -106 -93 -187 6 -102 72 -169 177 -181 l58 -7 0 -1918 0
-1919 -98 0 c-130 0 -178 -17 -236 -81 -33 -37 -48 -64 -57 -103 -15 -70 -8
-171 15 -194 16 -16 151 -17 2199 -20 1626 -2 2189 1 2210 9 40 17 49 40 46
122 -3 95 -21 145 -71 196 -53 53 -112 71 -235 71 l-93 0 0 1920 0 1920 40 0
c135 0 236 151 185 274 -21 50 -78 103 -124 116 -22 6 -248 10 -588 10 l-551
0 -4 140 c-2 118 -6 142 -21 157 -17 17 -65 18 -810 20 -769 3 -793 2 -817
-17z"/>
</g>
</svg>
